<svg width="400" height="400" viewBox="0 0 400 400" xmlns="http://www.w3.org/2000/svg">
  <!-- Facebook Profile Logo - Simple version -->
  <defs>
    <!-- Gradient for background -->
    <radialGradient id="bgGradient" cx="50%" cy="50%" r="50%">
      <stop offset="0%" style="stop-color:#1a1a1a;stop-opacity:1" />
      <stop offset="100%" style="stop-color:#000000;stop-opacity:1" />
    </radialGradient>
    
    <!-- Glow effect -->
    <filter id="glow">
      <feGaussianBlur stdDeviation="4" result="coloredBlur"/>
      <feMerge> 
        <feMergeNode in="coloredBlur"/>
        <feMergeNode in="SourceGraphic"/>
      </feMerge>
    </filter>
  </defs>
  
  <!-- Background circle -->
  <circle cx="200" cy="200" r="180" fill="url(#bgGradient)" stroke="#00ff00" stroke-width="6"/>
  
  <!-- Main character centered -->
  <g transform="translate(200, 200)">
    <!-- Body (wider at bottom, narrower at top) -->
    <ellipse cx="0" cy="20" rx="70" ry="90" fill="#4CAF50" stroke="#2E7D32" stroke-width="4" filter="url(#glow)"/>
    
    <!-- Head (circular) -->
    <circle cx="0" cy="-20" r="55" fill="#4CAF50" stroke="#2E7D32" stroke-width="4" filter="url(#glow)"/>
    
    <!-- Eyes (bigger and more expressive) -->
    <circle cx="-20" cy="-30" r="12" fill="#000000"/>
    <circle cx="20" cy="-30" r="12" fill="#000000"/>
    
    <!-- Eye highlights -->
    <circle cx="-17" cy="-33" r="5" fill="#ffffff"/>
    <circle cx="23" cy="-33" r="5" fill="#ffffff"/>
    
    <!-- Eyebrows (more expressive) -->
    <path d="M -30 -45 Q -20 -50 -10 -45" stroke="#000000" stroke-width="5" fill="none"/>
    <path d="M 10 -45 Q 20 -50 30 -45" stroke="#000000" stroke-width="5" fill="none"/>
    
    <!-- Mouth (bigger smile) -->
    <path d="M -20 -10 Q 0 0 20 -10" stroke="#000000" stroke-width="5" fill="none"/>
    
    <!-- Arms (waving more enthusiastically) -->
    <ellipse cx="-60" cy="0" rx="20" ry="50" fill="#4CAF50" stroke="#2E7D32" stroke-width="3" transform="rotate(-30 -60 0)"/>
    <ellipse cx="60" cy="0" rx="20" ry="50" fill="#4CAF50" stroke="#2E7D32" stroke-width="3" transform="rotate(30 60 0)"/>
    
    <!-- Legs (bigger) -->
    <ellipse cx="-25" cy="90" rx="25" ry="40" fill="#4CAF50" stroke="#2E7D32" stroke-width="3"/>
    <ellipse cx="25" cy="90" rx="25" ry="40" fill="#4CAF50" stroke="#2E7D32" stroke-width="3"/>
    
    <!-- Decorative sparkles -->
    <circle cx="-80" cy="-80" r="4" fill="#00ff00" opacity="0.9"/>
    <circle cx="80" cy="-80" r="4" fill="#00ff00" opacity="0.9"/>
    <circle cx="-80" cy="80" r="4" fill="#00ff00" opacity="0.9"/>
    <circle cx="80" cy="80" r="4" fill="#00ff00" opacity="0.9"/>
    <circle cx="0" cy="-100" r="3" fill="#00ff00" opacity="0.7"/>
    <circle cx="0" cy="100" r="3" fill="#00ff00" opacity="0.7"/>
  </g>
</svg>
